<?xml version="1.0" standalone="no"?>
<!DOCTYPE svg PUBLIC "-//W3C//DTD SVG 20010904//EN"
 "http://www.w3.org/TR/2001/REC-SVG-20010904/DTD/svg10.dtd">
<svg version="1.0" xmlns="http://www.w3.org/2000/svg"
 width="512.000000pt" height="512.000000pt" viewBox="0 0 512.000000 512.000000"
 preserveAspectRatio="xMidYMid meet">

<g transform="translate(0.000000,512.000000) scale(0.100000,-0.100000)"
fill="#000000" stroke="none">
<path d="M2430 4964 c-529 -39 -1012 -258 -1380 -625 -111 -111 -219 -245
-262 -324 -29 -54 -32 -68 -33 -145 0 -96 19 -149 75 -214 l33 -37 -18 -37
c-103 -216 -155 -482 -155 -796 l0 -196 -27 -5 c-247 -50 -410 -172 -510 -381
-57 -120 -65 -191 -61 -552 4 -298 5 -321 27 -387 55 -169 177 -316 326 -392
143 -73 169 -77 520 -78 292 0 312 1 344 20 56 33 71 74 71 195 l0 105 136 69
c159 80 206 120 228 197 23 76 23 542 0 618 -23 79 -75 124 -231 200 l-131 65
-4 117 c-3 100 -6 122 -24 146 -43 58 -66 63 -323 63 l-233 0 5 238 c7 295 29
419 115 639 l36 92 72 -6 c141 -12 229 32 327 161 244 321 557 515 952 592
125 25 385 24 515 0 206 -40 405 -121 580 -238 110 -73 289 -245 373 -359 61
-82 106 -118 181 -143 52 -18 141 -21 180 -6 24 9 27 6 46 -38 38 -83 81 -221
107 -341 21 -99 26 -150 30 -353 l5 -238 -233 0 c-262 0 -283 -5 -326 -69 -21
-30 -23 -46 -23 -145 l0 -112 -132 -64 c-146 -72 -189 -103 -221 -164 -21 -39
-22 -56 -25 -311 -5 -408 -4 -412 229 -530 l149 -76 0 -107 c0 -130 14 -166
80 -200 37 -19 60 -22 147 -22 l102 0 -15 -44 c-22 -62 -84 -130 -152 -163
l-57 -28 -411 -3 -411 -3 -22 60 c-29 81 -75 139 -141 179 -79 47 -107 52
-292 52 -211 0 -253 -13 -343 -104 -72 -73 -99 -138 -99 -236 -1 -121 48 -216
145 -282 82 -57 154 -71 334 -66 135 4 156 7 205 30 97 44 169 122 195 213
l12 40 419 5 c460 6 466 7 564 70 83 53 148 142 170 231 l12 46 146 6 c85 4
173 13 207 23 220 59 393 226 466 449 22 66 23 89 27 388 4 360 -4 428 -62
552 -98 207 -263 330 -507 380 l-27 5 -5 237 c-6 306 -37 470 -129 696 l-40
97 33 37 c71 81 96 203 64 306 -23 74 -149 241 -284 376 -329 328 -757 542
-1211 605 -113 16 -340 26 -430 20z m370 -125 c497 -61 954 -301 1276 -669
109 -125 171 -220 179 -273 15 -100 -45 -195 -142 -223 -103 -30 -174 1 -257
111 -531 705 -1512 863 -2226 357 -111 -78 -280 -243 -365 -356 -63 -83 -106
-114 -173 -123 -137 -18 -259 121 -223 255 24 88 244 342 421 485 290 234 690
402 1050 440 80 9 382 6 460 -4z m-1217 -2805 c21 -14 42 -36 47 -50 6 -14 10
-148 10 -298 0 -324 9 -301 -141 -376 -54 -28 -101 -50 -104 -50 -3 0 -5 196
-5 435 l0 434 78 -35 c42 -19 94 -46 115 -60z m2143 -771 c-9 -9 -205 98 -225
123 -20 26 -21 37 -21 303 0 337 -8 316 142 388 l103 50 3 -430 c1 -236 0
-432 -2 -434z m-935 -565 c156 -92 149 -321 -12 -402 -50 -25 -60 -26 -208
-26 -130 0 -163 4 -196 19 -86 39 -135 116 -135 211 0 70 21 118 73 168 57 55
92 62 272 59 153 -2 162 -3 206 -29z"/>
<path d="M2345 4064 c-221 -40 -401 -132 -565 -290 -149 -144 -254 -321 -307
-519 -24 -90 -27 -117 -27 -275 0 -158 3 -185 27 -273 30 -112 95 -256 158
-348 56 -83 207 -234 288 -289 191 -128 471 -205 680 -186 451 41 813 311 962
717 168 458 20 965 -369 1260 -231 175 -560 254 -847 203z m593 -183 c11 -6 9
-20 -7 -69 -45 -133 -26 -203 104 -380 l24 -33 -20 -56 c-30 -88 -26 -136 15
-181 l35 -37 115 0 c96 0 118 -3 133 -17 26 -27 21 -77 -15 -132 -43 -66 -47
-96 -24 -149 23 -52 70 -84 136 -93 33 -5 46 -11 46 -23 0 -31 -67 -179 -113
-252 -53 -83 -104 -146 -92 -114 33 89 32 150 -3 216 -39 75 -91 102 -188 96
-87 -5 -135 -29 -254 -129 -90 -75 -131 -98 -180 -98 -63 0 -24 45 120 140 77
51 136 105 156 142 18 34 18 109 0 151 -19 44 -82 102 -141 129 -42 19 -67 23
-151 23 l-102 0 -98 -50 c-142 -72 -169 -70 -340 16 -146 75 -212 94 -286 85
-133 -18 -207 -107 -195 -237 7 -77 49 -153 142 -257 108 -121 135 -190 104
-269 l-11 -28 -56 61 c-65 70 -137 188 -176 285 -84 215 -87 479 -6 699 54
151 159 305 267 397 l50 42 64 -26 c43 -18 90 -28 142 -31 57 -3 80 -9 84 -20
4 -8 -4 -47 -17 -86 -57 -174 -7 -363 115 -434 49 -28 108 -25 154 8 32 22 73
91 85 145 13 53 57 116 154 219 52 56 110 124 128 151 34 50 74 152 74 187 0
20 8 22 28 9z m194 -121 c252 -190 403 -525 378 -840 l-5 -65 -50 0 c-63 0
-67 14 -23 85 28 45 33 62 33 115 0 79 -32 132 -100 165 -42 20 -56 22 -135
16 -56 -4 -91 -3 -95 3 -3 6 3 41 15 78 29 94 21 128 -46 211 -58 72 -91 153
-80 200 10 39 27 82 35 82 3 0 36 -23 73 -50z m-1079 -885 c127 -64 140 -68
216 -73 79 -4 81 -4 188 46 131 62 171 70 249 47 64 -19 124 -69 124 -105 0
-39 -19 -59 -145 -145 -68 -47 -133 -97 -144 -112 -87 -110 2 -243 146 -220
57 10 132 52 208 117 98 85 148 113 201 113 78 0 106 -48 80 -138 -24 -79 -80
-127 -193 -160 -114 -34 -141 -44 -183 -71 -43 -26 -96 -85 -117 -129 -18 -39
-40 -45 -153 -45 -161 0 -343 49 -487 132 -106 60 -108 64 -81 124 52 114 18
231 -107 374 -117 132 -143 186 -124 255 14 49 49 66 125 62 53 -2 80 -12 197
-72z m997 -730 c0 -7 -176 -91 -210 -101 l-25 -6 25 26 c20 22 87 50 208 85 1
1 2 -1 2 -4z"/>
</g>
</svg>
