<svg width="26" height="24" viewBox="0 0 26 24" fill="none" xmlns="http://www.w3.org/2000/svg">
<rect x="0.156295" y="0.601429" width="12.4766" height="17.2685" rx="1.5" transform="matrix(0.914597 0.404367 -0.602008 0.79849 13.0498 4.02125)" fill="#D9D9D9"/>
<rect x="0.156295" y="0.601429" width="12.4766" height="17.2685" rx="1.5" transform="matrix(0.914597 0.404367 -0.602008 0.79849 13.0498 4.02125)" fill="white"/>
<rect x="0.156295" y="0.601429" width="12.4766" height="17.2685" rx="1.5" transform="matrix(0.914597 0.404367 -0.602008 0.79849 13.0498 4.02125)" stroke="black"/>
<rect x="0.156295" y="0.601429" width="12.4766" height="17.2685" rx="1.5" transform="matrix(0.914597 0.404367 -0.602008 0.79849 13.0498 0.0579933)" fill="#D9D9D9"/>
<rect x="0.156295" y="0.601429" width="12.4766" height="17.2685" rx="1.5" transform="matrix(0.914597 0.404367 -0.602008 0.79849 13.0498 0.0579933)" fill="black"/>
<rect x="0.156295" y="0.601429" width="12.4766" height="17.2685" rx="1.5" transform="matrix(0.914597 0.404367 -0.602008 0.79849 13.0498 0.0579933)" stroke="black"/>
<rect width="9.46448" height="5.15786" rx="2" transform="matrix(0.914597 0.404367 -0.602008 0.79849 11.2509 4.9541)" fill="#D9D9D9"/>
<rect width="9.46448" height="5.15786" rx="2" transform="matrix(0.914597 0.404367 -0.602008 0.79849 11.2509 4.9541)" fill="white"/>
<path d="M2.54337 14.2943C2.56634 14.2325 2.68192 14.1258 2.7867 14.0281C2.89918 13.9232 2.99522 13.7883 3.08277 13.708C3.15182 13.6446 3.00775 13.9115 2.93238 14.0273C2.86616 14.1291 2.7411 14.2138 2.64815 14.3206C2.55521 14.4273 2.48558 14.5337 2.41022 14.6405C2.34112 14.7383 2.34634 14.8536 2.27097 14.9603C2.20015 15.0607 2.17228 15.1735 2.09692 15.2802C2.02609 15.3806 1.99823 15.4934 1.9575 15.6001C1.9181 15.7034 1.91677 15.8485 1.88788 16.0481C1.8181 16.5304 1.91677 16.6397 1.95141 16.7464C1.98684 16.8556 2.04418 16.9595 2.11955 17.0663C2.19037 17.1666 2.19526 17.2794 2.23564 17.3862C2.28136 17.5071 2.36931 17.5993 2.43284 17.7061C2.49643 17.813 2.58932 17.9192 2.65337 18.026C2.72198 18.1404 2.85597 18.2215 2.98965 18.2971C3.14201 18.3832 3.2737 18.5324 3.41312 18.6347C3.48257 18.6747 3.55254 18.7104 3.62199 18.7459C3.65697 18.7637 3.69144 18.7813 3.72694 18.8261" stroke="black" stroke-linecap="round"/>
<path d="M3.72697 16.6669C3.81957 16.7199 3.91216 16.8263 4.00528 16.9243C4.03397 16.9544 3.8784 16.9601 3.77988 16.9469C3.61785 16.9252 3.58807 16.7826 3.51863 16.7647C3.48546 16.7562 3.44918 16.782 3.43142 16.8087C3.41367 16.8354 3.41367 16.8705 3.4309 16.8975C3.50496 17.0132 3.66849 17.0929 3.78458 17.1775C3.89369 17.2571 3.94698 17.3861 4.01103 17.4929C4.07964 17.6072 4.21363 17.706 4.31841 17.8128C4.34367 17.8385 4.36471 17.8659 4.38229 17.8619C4.5296 17.8284 4.48098 17.6095 4.49856 17.3388C4.51048 17.1552 4.5506 16.9255 4.5452 16.4288C4.54326 16.2499 4.28464 16.2052 4.14522 16.1384C4.01895 16.0779 3.88989 16.0716 3.79729 16.0803C3.54463 16.1039 3.47215 16.3374 3.41959 16.4973C3.34864 16.7132 3.47146 16.8263 3.48904 16.9331C3.51251 17.0756 3.49513 17.2528 3.50052 17.3596C3.50735 17.4947 3.71513 17.5461 3.81939 17.6307C3.91999 17.7124 4.0166 17.8126 4.10954 17.9194C4.1963 18.0191 4.31841 18.0528 4.35339 18.0708C4.52639 18.1598 4.0528 17.7961 3.93618 17.6581C3.83712 17.541 3.72767 17.4138 3.62288 17.3071C3.52222 17.2045 3.41437 17.1115 3.32107 16.9523C3.19383 16.735 3.30924 16.5866 3.31498 16.6398C3.32725 16.7534 3.43665 16.853 3.54665 16.9597C3.6768 17.086 3.84254 17.2262 4.02791 17.3728C4.1796 17.4928 4.35287 17.6084 4.75233 17.9009C4.87504 17.9816 4.94501 18.0086 5.01445 18.0263C5.04944 18.0352 5.0839 18.044 5.18903 18.0531" stroke="white" stroke-linecap="round"/>
<path d="M22.7683 8.98766C22.7954 8.98766 22.8771 8.98766 22.9731 9.00323C23.1135 9.02603 22.9601 9.20754 22.9192 9.25992C22.8784 9.3122 22.7551 9.30222 22.6933 9.3126C22.6781 9.31515 22.7264 9.34375 22.7677 9.34406C22.9349 9.34533 23.0139 9.16633 23.1035 9.05105C23.124 9.01943 23.1511 8.98829 23.1719 8.95668C23.1926 8.92507 23.2062 8.89392 23.2612 8.83038" stroke="white" stroke-linecap="round"/>
<path d="M23.0147 9.36516C23.0147 9.03267 23.0419 8.35919 23.0626 7.8257C23.0644 7.77842 23.0969 8.34284 23.1037 9.14481C23.124 9.4589 23.1651 9.5325 23.2333 9.61618C23.2743 9.65833 23.3286 9.69985 23.4666 9.77409" stroke="black" stroke-linecap="round"/>
<path d="M21.8875 8.53314C21.8774 8.53302 21.8466 8.58 21.8363 8.63691C21.8265 8.69143 21.7544 8.72126 21.7339 8.76841C21.7128 8.81685 21.6674 8.86253 21.6391 8.90968C21.6314 8.92151 21.6213 8.93316 21.611 8.94499C21.6007 8.95683 21.5905 8.96848 21.5955 8.96872" stroke="black" stroke-linecap="round"/>
<path d="M23.0866 7.97988C23.0866 7.92537 23.0663 7.8153 23.0278 7.76815C22.9929 7.72545 22.9944 7.6585 22.9816 7.56832C22.9567 7.3924 23.0045 7.34441 23.025 7.29726C23.053 7.23312 23.0506 7.14428 23.0533 7.07165C23.0548 7.03224 23.015 7.15558 22.997 7.21445C22.9893 7.27343 22.979 7.39809 23.0045 7.48721C23.0098 7.50098 23.0098 7.51652 23.0098 7.53253" stroke="black" stroke-linecap="round"/>
<path d="M24.3626 9.27478C24.3778 9.30598 24.4188 9.37649 24.4394 9.43741C24.4566 9.48865 24.5059 9.53354 24.5316 9.58068C24.5566 9.62653 24.5827 9.6748 24.6238 9.72195C24.6442 9.74544 24.6699 9.76521 24.6879 9.77116C24.7393 9.78815 24.619 9.68705 24.5805 9.63013C24.5461 9.57928 24.5215 9.52223 24.4985 9.47509C24.4739 9.42487 24.4447 9.38097 24.4241 9.33382C24.4036 9.28667 24.3832 9.2397 24.3627 9.19255C24.3421 9.1454 24.3217 9.09843 24.319 8.67999C24.3181 8.54091 24.3521 8.45496 24.3651 8.39404C24.3759 8.34368 24.3933 8.22411 24.3883 8.08278C24.3867 8.03842 24.373 8.05023 24.3627 8.064C24.2987 8.14966 24.3217 8.28568 24.319 8.47939C24.3179 8.55853 24.3727 8.60353 24.3932 8.66239C24.4138 8.72136 24.4342 8.77611 24.4777 8.84874C24.5114 8.9049 24.5111 8.96446 24.5316 9.01756C24.5418 9.04687 24.5471 9.07842 24.5496 9.11168C24.5521 9.12939 24.5572 9.14882 24.5778 9.19238" stroke="white" stroke-linecap="round"/>
<path d="M24.3779 8.2506C24.3933 8.19622 24.3832 8.06248 24.3703 7.94688C24.3682 7.9279 24.3475 7.93652 24.3371 7.94635C24.2967 7.98466 24.3011 8.08509 24.3164 8.15625C24.3283 8.21168 24.342 8.27391 24.3421 8.48717C24.3114 8.56834 24.296 8.60365 24.2883 8.62908C24.2857 8.64285 24.2857 8.65839 24.2857 8.6744" stroke="white" stroke-linecap="round"/>
<path d="M1.05368 12.5813C1.07182 12.7099 1.04788 12.9422 1.02049 13.101C0.968325 13.4035 1.02938 13.623 1.0535 13.6507C1.10194 13.7063 1.16216 13.7526 1.2047 13.8012C1.25151 13.8547 1.34356 13.8868 1.37712 13.9424C1.40781 13.9933 1.33195 14.0397 1.32279 14.0583C1.32036 14.0632 1.34356 14.0585 1.3558 14.0493C1.40979 14.0085 1.41648 13.9337 1.43453 13.8734C1.45125 13.8175 1.4767 13.7623 1.50709 13.7067C1.52181 13.6797 1.54328 13.6556 1.56151 13.6486C1.62503 13.6242 1.51915 13.7479 1.51634 13.8035C1.51555 13.8191 1.4894 13.8312 1.48314 13.8314C1.42776 13.8333 1.51915 13.7345 1.55244 13.672C1.55561 13.6512 1.54963 13.6237 1.53756 13.5981C1.5255 13.5724 1.50754 13.5495 1.48904 13.5259" stroke="white" stroke-linecap="round"/>
</svg>
